/* XPM */
static char *_b9948448ac0486cb18a5d1ff043d7422veadiTqW5gEmaCM[] = {
/* columns rows colors chars-per-pixel */
"64 64 12 1 ",
"  c black",
". c #323821",
"X c #29366F",
"o c #257179",
"O c #C43F31",
"+ c #38B764",
"@ c #88A043",
"# c #9FBC4D",
"$ c #A7F070",
"% c #D8B78F",
"& c #FFD7A8",
"* c white",
/* pixels */
"    XXXX                        XXXX            XXXXXXXXXXXXXXXX",
"    XXXX                        XXXX            XXXXXXXXXXXXXXXX",
"    XXXX                        XXXX            XXXXXXXXXXXXXXXX",
"    XXXX                        XXXX            XXXXXXXXXXXXXXXX",
"ooooooooooooXXXX$$$$++++++++++++++++++++++++++++++++$$$$XXXXXXXX",
"ooooooooooooXXXX$$$$++++++++++++++++++++++++++++++++$$$$XXXXXXXX",
"ooooooooooo..........................................$$$XXXXXXXX",
"ooooooooooo..........................................$$$XXXXXXXX",
"++++XXXXooo..........................................+++XXXX++++",
"++++XXX.......@@@@@@@@@@@@@@#########################....XXX++++",
"++++XXX.......@@@@@@@@@@@@@@#########################....XXX++++",
"++++XXX.......@@@@@@@@@@@@@@#########################....XXX++++",
"++++...OOOO...@@@@@@@@@@@@@@@@@@#######@@@@@@@@@@@###....$$$++++",
"++++...OOOO...@@@@@@@@@@@@@@@@@@#######@@@@@@@@@@@###....$$$++++",
"++++...OOOO...@@@@@@@@@@@@@@@@@@#######@@@@@@@@@@@###....$$$++++",
"++++...OOOO...@@@@***....***@@@@####...###########.......$$$++++",
"++++...OOOO...@@@@***....***@@@@####...###########.......+++++++",
"++++..........@@@@***....***@@@@#####################....+++++++",
"++++..........@@@@***....***@@@@#####################....+++++++",
"++++..........@@@@***....***@@@@#####################....+++++++",
"+++++++....OOO....**********@@@@#####################....+++++++",
"+++++++....OOO....**********@@@@#####################....+++++++",
"+++++++....OOO....**********@@@@#####################....+++++++",
"+++++++....OOO....@@@@@@@@@@@@@@#####################....+++++++",
"+++++++....OOO....@@@@@@@@@@@@@@#####################....ooo++++",
"+++++++....OOO....@@@@@@@@@@@@@@#####################....ooo++++",
"+++++++...........@@@@@@@@@@@@@@@@@@###..................ooo++++",
"+++++++...........@@@@@@@@@@@@@@@@@@###..................ooo++++",
"oooo+++...........@@@@@@@@@@@@@@@@@@###..................+++++++",
"oooo++++oooo++.......@@@@@@@###############...XXXXXXoooo++++++++",
"oooo++++oooo++.......@@@@@@@###############...XXXXXXoooo++++++++",
"oooo++++oooo++.......@@@@@@@###############...XXXXXXoooo++++++++",
"oooo++++++++oooooo...@@@@%%%&&&&&&&&&&&&&&&...$$XXXXoooooooooooo",
"oooo++++++++oooooo...@@@@%%%&&&&&&&&&&&&&&&...$$XXXXoooooooooooo",
"oooo++++++++oooooo...@@@@%%%&&&&&&&&&&&&&&&...$$XXXXoooooooooooo",
"oooo+++++++..........@@@@%%%&&&&&&&&&&&&&&&...$$XXXXoooooooooooo",
"ooooooooooo..........@@@@%%%&&&&&&&&&&&&&&&...++$$$$XXXXoooooooo",
"ooooooooooo..........@@@@%%%&&&&&&&&&&&&&&&...++$$$$XXXXoooooooo",
"ooooooooooo...#######@@@@%%%&&&&&&&&&&&&&&&...++$$$$XXXXoooooooo",
"ooooooooooo...#######@@@@%%%&&&&&&&&&&&&&&&...++$$$$XXXXoooooooo",
"ooooooooXXX...#######@@@@%%%&&&&&&&&&&&&&&&...++++++XXXXXXXXoooo",
"ooooooooXXX.......@@@@@@@@@@####%%%%%%%####...++++++XXXXXXXXoooo",
"ooooooooXXX.......@@@@@@@@@@####%%%%%%%####...++++++XXXXXXXXoooo",
"ooooooooXXX.......@@@@@@@@@@####%%%%%%%####...++++++XXXXXXXXoooo",
"XXXXXXXX$$$$$$.......@@@@##################...++++++$$$$XXXXXXXX",
"XXXXXXXX$$$$$$.......@@@@##################...++++++$$$$XXXXXXXX",
"XXXXXXXX$$$$$$.......@@@@##################...++++++$$$$XXXXXXXX",
"XXXXXXXX$$$$$$$$$$...@@@@###........@@@####...++++++$$$$XXXXXXXX",
"++++++++++++++++++...@@@@###........@@@####...++++++++++XXXX$$$$",
"++++++++++++++++++...@@@@...oooo....@@@....+++++++++++++XXXX$$$$",
"++++++++++++++++++...@@@@...oooo....@@@....+++++++++++++XXXX$$$$",
"++++++++++++++++++...@@@@...oooo....@@@....+++++++++++++XXXX$$$$",
"++++++++++++oooo++.......XXXXXXX.......ooooooooooooo++++++++++++",
"++++++++++++oooo++.......XXXXXXX.......ooooooooooooo++++++++++++",
"++++++++++++oooo++.......XXXXXXX.......ooooooooooooo++++++++++++",
"++++++++++++oooo++++ooooXXXXXXXXoooooooooooooooooooo++++++++++++",
"++++++++++++++++++++ooooXXXXXXXXXXXXXXXXXXXXXXXXXXXX++++++++oooo",
"++++++++++++++++++++ooooXXXXXXXXXXXXXXXXXXXXXXXXXXXX++++++++oooo",
"++++++++++++++++++++ooooXXXXXXXXXXXXXXXXXXXXXXXXXXXX++++++++oooo",
"++++++++++++++++++++ooooXXXXXXXXXXXXXXXXXXXXXXXXXXXX++++++++oooo",
"oooo++++ooooooooooooooooXXXX$$$$++++++++++++$$$$XXXXoooo++++++++",
"oooo++++ooooooooooooooooXXXX$$$$++++++++++++$$$$XXXXoooo++++++++",
"oooo++++ooooooooooooooooXXXX$$$$++++++++++++$$$$XXXXoooo++++++++",
"oooo++++ooooooooooooooooXXXX$$$$++++++++++++$$$$XXXXoooo++++++++"
};
