/* XPM */
static char *f7b8d7f9409749679df9658feee22682mEHPdWvPlmwXVmoc[] = {
/* columns rows colors chars-per-pixel */
"64 64 12 1 ",
"  c black",
". c #323821",
"X c #29366F",
"o c #257179",
"O c #C43F31",
"+ c #38B764",
"@ c #88A043",
"# c #9FBC4D",
"$ c #A7F070",
"% c #D8B78F",
"& c #FFD7A8",
"* c white",
/* pixels */
"    XXXX                        XXXX            XXXXXXXXXXXXXXXX",
"    XXXX                        XXXX            XXXXXXXXXXXXXXXX",
"    XXXX                        XXXX            XXXXXXXXXXXXXXXX",
"    XXXX              .............................XXXXXXXXXXXXX",
"ooooooooooooXXXX$$$$++.............................+$$$$XXXXXXXX",
"ooooooooooooXXXX$$$$++.............................+$$$$XXXXXXXX",
"ooooooooooooXXXX$$$$++.............................+$$$$XXXXXXXX",
"ooooooooooooX.........@@@@@@@######################...$$XXXXXXXX",
"++++XXXXooooo.........@@@@@@@######################...++XXXX++++",
"++++XXXXooooo.........@@@@@@@######################...++XXXX++++",
"++++XXXXoo......@@@@@@@@@@@@@@@@######@@@@@@@@@@###...++XXXX++++",
"++++XXXXoo......@@@@@@@@@@@@@@@@######@@@@@@@@@@###...++XXXX++++",
"++++$$$$XX......@@@@@@@@@@@@@@@@######@@@@@@@@@@###...oo$$$$++++",
"++++$$....OOO...@@@***....@@@@@@###...##########......oo$$$$++++",
"++++$$....OOO...@@@***....@@@@@@###...##########......oo$$$$++++",
"++++$$....OOO...@@@***....@@@@@@###...##########......oo$$$$++++",
"++++++....OOO...@@@***....@@@@@@###...##########......$$++++++++",
"++++++....OOO...@@@***....***@@@###################...$$++++++++",
"++++++....OOO...@@@***....***@@@###################...$$++++++++",
"++++++....OOO...@@@***....***@@@###################...$$++++++++",
"++++++..........@@@**********@@@###################...++++++++++",
"++++++..........@@@**********@@@###################...++++++++++",
"++++++..........@@@**********@@@###################...++++++++++",
"++++++..........@@@**********@@@###################...++++++++++",
"++++++++++...OOO...@@@@@@@@@@######################...++oooo++++",
"++++++++++...OOO...@@@@@@@@@@######################...++oooo++++",
"++++++++++...OOO...@@@@@@@@@@######################...++oooo++++",
"++++++++++...OOO...@@@@@@@@@@@@@#############.........++oooo++++",
"oooo++++oo...OOO...@@@@@@@@@@@@@#############.........oo++++++++",
"oooo++++oo...OOO...@@@@@@@@@@@@@#############.........oo++++++++",
"oooo++++oo............@@@@@@@@@@@@@###.......XXXXXXXoooo++++++++",
"oooo++++oo............@@@@@@@@@@@@@###.......XXXXXXXoooo++++++++",
"oooo++++++............@@@@@@@@@@@@@###.......$$$XXXXoooooooooooo",
"oooo++++++............@@@@@@@@@@@@@###.......$$$XXXXoooooooooooo",
"oooo++++++++ooooooo...@@@@%%%&&&&&&&&&&&&&...$$$XXXXoooooooooooo",
"oooo++++++++ooooooo...@@@@%%%&&&&&&&&&&&&&...$$$XXXXoooooooooooo",
"ooooooooooooooooooo...@@@@%%%&&&&&&&&&&&&&...+++$$$$XXXXoooooooo",
"ooooooooooooooooooooXX....@@@%%%&&&&&&&&&&&&&...$$$$XXXXoooooooo",
"ooooooooooooooooooooXX....@@@%%%&&&&&&&&&&&&&...$$$$XXXXoooooooo",
"ooooooooooooooooooooXX....@@@%%%&&&&&&&&&&&&&...$$$$XXXXoooooooo",
"ooooooooXXXXXXXX......####@@@%%%&&&&&&&&&&&&&......+XXXXXXXXoooo",
"ooooooooXXXXXXXX......####@@@%%%&&&&&&&&&&&&&......+XXXXXXXXoooo",
"ooooooooXXXXXXXX......####@@@%%%&&&&&&&&&&&&&......+XXXXXXXXoooo",
"ooooooooXXXXXXXX......####@@@%%%&&&&&&&&&&&&&......+XXXXXXXXoooo",
"XXXXXXXX$$$$$$$$...###@@@@@@@@@@###%%%%%%%######...+$$$$XXXXXXXX",
"XXXXXXXX$$$$$$$$...###@@@@@@@@@@###%%%%%%%######...+$$$$XXXXXXXX",
"XXXXXXXX$$$$$$$$...###@@@@@@@@@@###%%%%%%%######...+$$$$XXXXXXXX",
"XXXXXXXX$$$$$$$$..........@@@######...####@@@@@@...+$$$$XXXXXXXX",
"++++++++++++++++..........@@@######...####@@@@@@...+++++XXXX$$$$",
"++++++++++++++++..........@@@######...####@@@@@@...+++++XXXX$$$$",
"++++++++++++++++..........@@@######...####@@@@@@...+++++XXXX$$$$",
"++++++++++++++++++++$$....@@@###................++++++++XXXX$$$$",
"++++++++++++oooo++++oo....@@@###................oooo++++++++++++",
"++++++++++++oooo++++oo....@@@###................oooo++++++++++++",
"++++++++++++oooo++++oo....@@@...oooooooooooooooooooo++++++++++++",
"++++++++++++oooo++++oo....@@@...oooooooooooooooooooo++++++++++++",
"++++++++++++++++++++oo....@@@...XXXXXXXXXXXXXXXXXXXX++++++++oooo",
"++++++++++++++++++++oo.......XXXXXXXXXXXXXXXXXXXXXXX++++++++oooo",
"++++++++++++++++++++oo.......XXXXXXXXXXXXXXXXXXXXXXX++++++++oooo",
"++++++++++++++++++++oo.......XXXXXXXXXXXXXXXXXXXXXXX++++++++oooo",
"oooo++++oooooooooooooo.......$$$++++++++++++$$$$XXXXoooo++++++++",
"oooo++++ooooooooooooooooXXXX$$$$++++++++++++$$$$XXXXoooo++++++++",
"oooo++++ooooooooooooooooXXXX$$$$++++++++++++$$$$XXXXoooo++++++++",
"oooo++++ooooooooooooooooXXXX$$$$++++++++++++$$$$XXXXoooo++++++++"
};
