/* XPM */
static char * Dino_move_xpm[] = {
"64 64 38 1",
" 	c #C0D470",
".	c #BBD06E",
"+	c #B4CB6C",
"@	c #B3CA6B",
"#	c #B7CE6C",
"$	c #B9CF6D",
"%	c #B9D06D",
"&	c #BBD16E",
"*	c #BED36F",
"=	c #323821",
"-	c #B2CB69",
";	c #B1CA69",
">	c #88A043",
",	c #9FBC4D",
"'	c #B0C968",
")	c #B6CD6B",
"!	c #C43F31",
"~	c #FFFFFF",
"{	c #D8B78F",
"]	c #FFD7A8",
"^	c #C0D46F",
"/	c #C3D676",
"(	c #C9DA7E",
"_	c #C9D97E",
":	c #C3D675",
"<	c #D7E393",
"[	c #DAE497",
"}	c #D1DF8B",
"|	c #DAE597",
"1	c #BFD36F",
"2	c #CCDB83",
"3	c #DEE89D",
"4	c #CCDC83",
"5	c #DFE89E",
"6	c #C8D97D",
"7	c #D7E293",
"8	c #DEE79D",
"9	c #BFD46F",
"   .+@#$%&**&&*      *&%$#@+.                                   ",
"                                                                ",
"                                                                ",
"                      =============================             ",
"                      =============================             ",
"                      =============================&**&&*       ",
"                      =============================-&&-;&       ",
"             =========>>>>>>>,,,,,,,,,,,,,,,,,,,,,,===';&       ",
"             =========>>>>>>>,,,,,,,,,,,,,,,,,,,,,,===)&*       ",
"             =========>>>>>>>,,,,,,,,,,,,,,,,,,,,,,===&         ",
"          ======>>>>>>>>>>>>>>>>,,,,,,>>>>>>>>>>,,,===*         ",
"       *&&======>>>>>>>>>>>>>>>>,,,,,,>>>>>>>>>>,,,===          ",
"       &;;======>>>>>>>>>>>>>>>>,,,,,,>>>>>>>>>>,,,===          ",
"      ====!!!===>>>~~~====>>>>>>,,,===,,,,,,,,,,======          ",
"      ====!!!===>>>~~~====>>>>>>,,,===,,,,,,,,,,======          ",
"      ====!!!===>>>~~~====>>>>>>,,,===,,,,,,,,,,======          ",
"      ====!!!===>>>~~~====>>>>>>,,,===,,,,,,,,,,======          ",
"      ====!!!===>>>~~~====~~~>>>,,,,,,,,,,,,,,,,,,,===          ",
"      ====!!!===>>>~~~====~~~>>>,,,,,,,,,,,,,,,,,,,===          ",
"      ====!!!===>>>~~~====~~~>>>,,,,,,,,,,,,,,,,,,,===          ",
"      ==========>>>~~~~~~~~~~>>>,,,,,,,,,,,,,,,,,,,===          ",
"      ==========>>>~~~~~~~~~~>>>,,,,,,,,,,,,,,,,,,,===          ",
"      ==========>>>~~~~~~~~~~>>>,,,,,,,,,,,,,,,,,,,===          ",
"      ==========>>>~~~~~~~~~~>>>,,,,,,,,,,,,,,,,,,,===          ",
"          ===!!!===>>>>>>>>>>,,,,,,,,,,,,,,,,,,,,,,===          ",
"          ===!!!===>>>>>>>>>>,,,,,,,,,,,,,,,,,,,,,,===          ",
"          ===!!!===>>>>>>>>>>,,,,,,,,,,,,,,,,,,,,,,===          ",
"          ===!!!===>>>>>>>>>>>>>,,,,,,,,,,,,,=========          ",
"          ===!!!===>>>>>>>>>>>>>,,,,,,,,,,,,,=========          ",
"          ===!!!===>>>>>>>>>>>>>,,,,,,,,,,,,,=========          ",
"          ============>>>>>>>>>>>>>,,,=======                   ",
"          ============>>>>>>>>>>>>>,,,=======                   ",
"          ============>>>>>>>>>>>>>,,,=======                   ",
"          ============>>>>>>>>>>>>>,,,=======                   ",
"                   ===>>>>{{{]]]]]]]]]]]]]===                   ",
"                   ===>>>>{{{]]]]]]]]]]]]]===         ^^  ^^    ",
"                   ===>>>>{{{]]]]]]]]]]]]]===                   ",
"                      ====>>>{{{]]]]]]]]]]]]]===     /(_::_(/   ",
"                      ====>>>{{{]]]]]]]]]]]]]===   ^ (<<((<<( ^ ",
"              ^^      ====>>>{{{]]]]]]]]]]]]]===   ^ _<[}}[<_ ^ ",
"                ======,,,,>>>{{{]]]]]]]]]]]]]======  :(}||}(:   ",
"            ^:_(======,,,,>>>{{{]]]]]]]]]]]]]======  ^ (<<( ^   ",
"           ^ (<<======,,,,>>>{{{]]]]]]]]]]]]]======   ^:__:^    ",
"      ^^   :_}|<======,,,,>>>{{{]]]]]]]]]]]]]======             ",
"         ^ _<|}(===,,,>>>>>>>>>>,,,{{{{{{{,,,,,,===     ^^      ",
"     /(_:1 2332 ===,,,>>>>>>>>>>,,,{{{{{{{,,,,,,===             ",
"   ^ (<<(^^4552^===,,,>>>>>>>>>>,,,{{{{{{{,,,,,,===             ",
"   ^ _<|}6:4554 ==========>>>,,,,,,===,,,,>>>>>>===             ",
"     :(}|7_2832 ==========>>>,,,,,,===,,,,>>>>>>===             ",
"     ^ 2382(7<( ==========>>>,,,,,,===,,,,>>>>>>===             ",
"     9^2554:6_: ==========>>>,,,,,,===,,,,>>>>>>===             ",
"     ^ 4554 ^    ^ _<|====>>>,,,================                ",
"     ^ 2332 1^     :(}====>>>,,,================^               ",
"     ^ (<<( ^      ^ 2====>>>,,,================^               ",
"       :__:        9^2====>>>===       :(}||}(:                 ",
"                   ^ 4====>>>===       ^ (<<( ^                 ",
"        ^^         ^ 2====>>>===        ^:__:^                  ",
"                   ^ (=======                                   ",
"                     :=======             ^^                    ",
"                      =======                                   ",
"                      =======                                   ",
"                                                                ",
"                                                                ",
"                                                                "};
