/* XPM */
static char * Dino_xpm[] = {
"64 64 27 1",
" 	c #C0D470",
".	c #BBD06E",
"+	c #B4CB6C",
"@	c #B3CA6B",
"#	c #B7CE6C",
"$	c #B9CF6D",
"%	c #BED36F",
"&	c #C0D46F",
"*	c #323821",
"=	c #B5CD6B",
"-	c #AFC968",
";	c #88A043",
">	c #9FBC4D",
",	c #C43F31",
"'	c #FFFFFF",
")	c #D8B78F",
"!	c #FFD7A8",
"~	c #C3D675",
"{	c #C9DA7E",
"]	c #D7E393",
"^	c #DAE597",
"/	c #D1DF8B",
"(	c #CCDB83",
"_	c #DEE89D",
":	c #CCDC83",
"<	c #DEE79D",
"[	c #BFD46F",
"   .+@#$..%%..%      %..$#@+.                                   ",
"                                                                ",
"                                                                ",
"                                                                ",
"                                                 &              ",
"                       %..%                      %..%%..%       ",
"           ******************************************.@@.       ",
"           ******************************************=@@.       ",
"           ******************************************-=.%       ",
"       *******;;;;;;;;;;;;;;>>>>>>>>>>>>>>>>>>>>>>>>>****       ",
"       *******;;;;;;;;;;;;;;>>>>>>>>>>>>>>>>>>>>>>>>>****       ",
"       *******;;;;;;;;;;;;;;>>>>>>>>>>>>>>>>>>>>>>>>>****       ",
"    ***,,,,***;;;;;;;;;;;;;;;;;;>>>>>>>;;;;;;;;;;;>>>****       ",
"    ***,,,,***;;;;;;;;;;;;;;;;;;>>>>>>>;;;;;;;;;;;>>>****       ",
"    ***,,,,***;;;;;;;;;;;;;;;;;;>>>>>>>;;;;;;;;;;;>>>****       ",
"    ***,,,,***;;;;'''****''';;;;>>>>***>>>>>>>>>>>*******       ",
"    ***,,,,***;;;;'''****''';;;;>>>>***>>>>>>>>>>>*******       ",
"    **********;;;;'''****''';;;;>>>>>>>>>>>>>>>>>>>>>****       ",
"    **********;;;;'''****''';;;;>>>>>>>>>>>>>>>>>>>>>****       ",
"    **********;;;;'''****''';;;;>>>>>>>>>>>>>>>>>>>>>****       ",
"       ****,,,****'''''''''';;;;>>>>>>>>>>>>>>>>>>>>>****       ",
"       ****,,,****'''''''''';;;;>>>>>>>>>>>>>>>>>>>>>****       ",
"       ****,,,****'''''''''';;;;>>>>>>>>>>>>>>>>>>>>>****       ",
"       ****,,,****;;;;;;;;;;;;;;>>>>>>>>>>>>>>>>>>>>>****       ",
"       ****,,,****;;;;;;;;;;;;;;>>>>>>>>>>>>>>>>>>>>>****       ",
"       ****,,,****;;;;;;;;;;;;;;>>>>>>>>>>>>>>>>>>>>>****       ",
"       ***********;;;;;;;;;;;;;;;;;;>>>******************       ",
"       ***********;;;;;;;;;;;;;;;;;;>>>******************       ",
"       ***********;;;;;;;;;;;;;;;;;;>>>******************       ",
"              *******;;;;;;;>>>>>>>>>>>>>>>***                  ",
"              *******;;;;;;;>>>>>>>>>>>>>>>***                  ",
"              *******;;;;;;;>>>>>>>>>>>>>>>***                  ",
"                  ***;;;;)))!!!!!!!!!!!!!!!***                  ",
"                  ***;;;;)))!!!!!!!!!!!!!!!***                  ",
"                  ***;;;;)))!!!!!!!!!!!!!!!***                  ",
"           **********;;;;)))!!!!!!!!!!!!!!!***        &&  &&    ",
"           **********;;;;)))!!!!!!!!!!!!!!!***                  ",
"           **********;;;;)))!!!!!!!!!!!!!!!***       ~{{~~{{~   ",
"           ***>>>>>>>;;;;)))!!!!!!!!!!!!!!!***     & {]]{{]]{ & ",
"           ***>>>>>>>;;;;)))!!!!!!!!!!!!!!!***     & {]^//^]{ & ",
"           ***>>>>>>>;;;;)))!!!!!!!!!!!!!!!***       ~{/^^/{~   ",
"           *******;;;;;;;;;;>>>>)))))))>>>>***       & {]]{ &   ",
"           *******;;;;;;;;;;>>>>)))))))>>>>***        &~{{~&    ",
"      &&   *******;;;;;;;;;;>>>>)))))))>>>>***                  ",
"         & {]^*******;;;;>>>>>>>>>>>>>>>>>>***          &&      ",
"     ~{{~% (__*******;;;;>>>>>>>>>>>>>>>>>>***                  ",
"   & {]]{&&:__*******;;;;>>>>>>>>>>>>>>>>>>***                  ",
"   & {]^/{~:__: & ***;;;;>>>********;;;>>>>***                  ",
"     ~{/^]{(<_( & ***;;;;>>>********;;;>>>>***                  ",
"     & (_<({]]{ & ***;;;;***    ****;;;**** &&                  ",
"     [&(__:~{{~  &***;;;;***    ****;;;****                     ",
"     & :__: &    &***;;;;***    ****;;;****~{{~                 ",
"     & (__( %&    ******* &     *******{]]{{]]{ &               ",
"     & {]]{ &     ******* &     *******{]^//^]{ &               ",
"       ~{{~       ******* &     *******~{/^^/{~                 ",
"                   & :__: &            & {]]{ &                 ",
"        &&         & (__( &             &~{{~&                  ",
"                   & {]]{ &                                     ",
"                     ~{{~                 &&                    ",
"                                                                ",
"                      &&                                        ",
"                                                                ",
"                                                                ",
"                                                                "};
