/* XPM */
static char * Egg_xpm[] = {
"64 64 153 2",
"  	c #C0D470",
". 	c #BBD06E",
"+ 	c #B4CB6C",
"@ 	c #B3CA6B",
"# 	c #B7CE6C",
"$ 	c #B9CF6D",
"% 	c #BED36F",
"& 	c #F5F6E9",
"* 	c #C0D46F",
"= 	c #F1F1E4",
"- 	c #EAE7D9",
"; 	c #E9E5D7",
"> 	c #E6E0D3",
", 	c #E1D9CB",
"' 	c #DBD1C2",
") 	c #DACFC1",
"! 	c #B5CD6B",
"~ 	c #EBE8DB",
"{ 	c #D5C9BA",
"] 	c #CDBCAC",
"^ 	c #C9B4A2",
"/ 	c #AFC968",
"( 	c #EFEEE0",
"_ 	c #D0BFAD",
": 	c #C4AD94",
"< 	c #BB9F8A",
"[ 	c #BB9B83",
"} 	c #E8E3D5",
"| 	c #D9CDBB",
"1 	c #CEBCA2",
"2 	c #C4AC8B",
"3 	c #BC9C7B",
"4 	c #BA9976",
"5 	c #E6E1D4",
"6 	c #D4C5AF",
"7 	c #CBB493",
"8 	c #C8B289",
"9 	c #C8B187",
"0 	c #D2C5A1",
"a 	c #D4C9A1",
"b 	c #DACDA1",
"c 	c #CDB996",
"d 	c #E3DCAD",
"e 	c #E7E2B4",
"f 	c #ECE4B5",
"g 	c #D3BE96",
"h 	c #DDD2A6",
"i 	c #F1EDBD",
"j 	c #F3F1BF",
"k 	c #F3ECC3",
"l 	c #F3F2C1",
"m 	c #ACC766",
"n 	c #EEEBBB",
"o 	c #F4F3CC",
"p 	c #F4F3CF",
"q 	c #F5F5CD",
"r 	c #CCC0AF",
"s 	c #D4CCC2",
"t 	c #DCD6CB",
"u 	c #E2DFD3",
"v 	c #F3EBCC",
"w 	c #F4F1D3",
"x 	c #F4F3D7",
"y 	c #F4F5D6",
"z 	c #F4F4D1",
"A 	c #CEC0A0",
"B 	c #C7B8A1",
"C 	c #C3B4A4",
"D 	c #C6B8AE",
"E 	c #CFC5BB",
"F 	c #F3E7C5",
"G 	c #F3EDD4",
"H 	c #F3F1DB",
"I 	c #F3F3D5",
"J 	c #F3F3CE",
"K 	c #C3B396",
"L 	c #B6A195",
"M 	c #B8A499",
"N 	c #C5B7AD",
"O 	c #B49A8B",
"P 	c #C1AFA2",
"Q 	c #D1C6BA",
"R 	c #DACD9F",
"S 	c #F3EBD0",
"T 	c #EEE7B8",
"U 	c #DFD6AC",
"V 	c #D4BC99",
"W 	c #BDA48C",
"X 	c #C2AC9B",
"Y 	c #F3EED1",
"Z 	c #F3E6C8",
"` 	c #E6DEB1",
" .	c #F3F4D7",
"..	c #F3F1DC",
"+.	c #E5D5AB",
"@.	c #C9AE91",
"#.	c #B39788",
"$.	c #D7D0C5",
"%.	c #E7E4D8",
"&.	c #F3F3DC",
"*.	c #F3EFDC",
"=.	c #EDDEB1",
"-.	c #E4D0A7",
";.	c #DDC39D",
">.	c #CBAE8D",
",.	c #B6947C",
"'.	c #A98779",
").	c #AB9288",
"!.	c #BDADA4",
"~.	c #F6F8EB",
"{.	c #B99775",
"].	c #C6AE86",
"^.	c #F3F3DB",
"/.	c #F3F3E6",
"(.	c #F0E7B8",
"_.	c #E9D4AA",
":.	c #A47F70",
"<.	c #A78A81",
"[.	c #B8967C",
"}.	c #A98675",
"|.	c #A98D84",
"1.	c #D0B492",
"2.	c #DDD8CC",
"3.	c #D0BEA2",
"4.	c #CEBB98",
"5.	c #D2C097",
"6.	c #E2C7A0",
"7.	c #C1A489",
"8.	c #E6CCA4",
"9.	c #C7B18B",
"0.	c #ECDAAE",
"a.	c #E9D0A7",
"b.	c #E8CFA6",
"c.	c #A98C7A",
"d.	c #B59682",
"e.	c #B49477",
"f.	c #A68374",
"g.	c #AE9283",
"h.	c #AC917C",
"i.	c #BCA98A",
"j.	c #C3D675",
"k.	c #C9DA7E",
"l.	c #B5A08F",
"m.	c #C7B997",
"n.	c #C0A287",
"o.	c #CCDB83",
"p.	c #BFD46F",
"q.	c #CCDC83",
"r.	c #DEE89D",
"s.	c #D2C59E",
"t.	c #B9A185",
"u.	c #E5E1D5",
"v.	c #D7E393",
"      . + @ # $ . . % % . . %             % . . $ # @ + .                                                                       ",
"                                                                                                                                ",
"                                                                                                                                ",
"                                                                                                                                ",
"                                                  & & & & & & & & & & & & & &                     *                             ",
"                                              % = = = = = = = = = = = = = = = =                   % . . % % . . %               ",
"                                              . - - ; ; ; ; ; ; ; ; ; ; ; ; - -                   . @ @ . . @ @ .               ",
"                                          % . > , ' ' ) ) ' ' ' ' ' ' ) ) ' ' , >                 . @ @ ! ! @ @ .               ",
"                                          = ~ , { ] ^ ^ ^ ^ ^ ^ ^ ^ ^ ^ ^ ^ ] { , ~ =           * % . ! / / ! . %               ",
"                                        = ( ; ' _ : < [ [ [ [ [ [ [ [ [ [ < : _ ' ; ( =               . @ @ .                   ",
"                                        ~ } , | 1 2 3 4 4 3 3 3 3 3 3 4 4 3 2 1 | , } ~               % . . %                   ",
"              % . . %                 5 , ' | 6 1 7 8 8 9 8 8 8 8 8 8 9 9 8 7 1 6 | ' , 5                                       ",
"              . @ @ .             = ~ , { ] 1 1 0 a b b b b b b b b b b b b a 0 1 1 ] { , ~ =                                   ",
"              . @ / ! . %       = ( } ' ] : : c b d e f f f e f f f f f f e d b c : : ] ' 5 ( =                                 ",
"              % . ! / @ .       ~ } , | 1 : 2 g h f i j i i i k k k l l l i f h g 2 : 1 { , 5 -                                 ",
"                  $ m m $     5 , ' | 6 1 c g b d n j l l l l o p p q q o l n d b g c 1 r { s t u                               ",
"                  $ m m $ = ~ , { ] 1 1 0 b h d f i l l k k k v w x y z q l i f d h a A B C D E t - =                           ",
"                  . @ @ = ( } ' ] : : c b d f n i l l k k k F v G H H I J l l i n f d 0 K L M N s 5 ( =                         ",
"                  % . . ~ ; , | 1 : 2 g h f i l l l l k k F F v G H H I J l l l j n e b K < O P Q t 5 -                         ",
"                      > , ' | 6 1 c g R d n l o o J J v F F F v S G G z J l l l l j T U V 2 W X D Q s t u                       ",
"                  = - , { _ 1 1 0 b h d f i l o z I I Y v F F Z v v v v k l l l l l n ` b V 7 : X C N E t - =                   ",
"                & = - ' ] : 2 7 a d f n i l l J  .....G S v F F F F F k k l l l l j i f +.b V @.< #.L N $.%.= &                 ",
"                & = - ' ^ < 3 8 b e i l l l J I &.= = *.G v v F F F k k k l l l l j i f =.-.;.>.,.'.).!.s %.= &                 ",
"                ~.= - ' ^ [ {.].R f l o q J I ^././.= = *.G S v F k k k k l l l l j i (.=._.;.>.,.:.<.!.s %.= ~.                ",
"                ~.= - ' ^ [ {.].R f l o z  .&./././.= = = *.G Y v k k k j l l l l j i (.=._.;.>.,.:.<.!.s %.= ~.                ",
"                = ( 5 | ^ < 3 8 b f l q y ..= /./././.= = = ..I J l l l j l l l l j i (.=._.;.>.[.}.|.!.s 5 ( =                 ",
"                ~ ; , | 1 2 ].g h f l p x ..= = = /./././.= ..I J l l j j l l l l j i (.=._.;.1.[ ,.#.!.Q 2.5 ~                 ",
"              > , ' | 6 3.4.5.b d n l o w G *.= = = /././.&. .z o l l l j l l l l l i (.=._.6.V >.7.W X D Q s t u               ",
"          = - , { ] 1 3.0 b U d f n l l v Y G *.= = /./.^.I J o l l l l l l l l l l i f =._.8.;.V 1.7 : X P N E t %.=           ",
"        & = - ' ] : 2 7 a d f n i j l k k v v G *.= = &.I J l l l l l l l l l l l j i f =._.8.8.6.;.V @.< #.L N $.%.= &         ",
"        & = ; ' ^ < 3 9.b e i l l l l k k F v Y G ....I J l l l l l l l l l j j i i (.f 0._.a.b.b.8.;.>.,.c.).!.s %.= &         ",
"        & = ; ) C d.e.].b f j l l l l k i k k v z I I z o l j j j l l l l l j i (.T f =.0._.a.a.a.8.;.>.,.f.<.!.s %.= &         ",
"        & = %.s P g.h.].a f j l l l l l k k k k o J J o l l l j j l l l l l i (.f f 0._._._.a.a.a.8.;.>.,.f.<.!.s %.= &         ",
"        & = %.s !.g.h.i.a e i l l l l l l l l l l l l l l l l l l l l l l j i (.f 0._._.a.a.b.a.a.8.;.>.,.f.|.!.s %.= &         ",
"        & = %.s !.|.c.i.a e i l l l l l l l l l l l l l l l l l l l l l l j i f =._._.b.b.b.b.a.a.8.;.>.,.f.|.!.s %.= &         ",
"        & = %.s !.|.c.i.a e i l l l l l l l l l l j j l l l l l l l l l l l i f =._.a.b.b.b.b.a.a.8.;.>.,.f.|.!.s %.= &         ",
"        & = %.s !.|.c.i.a e i l l l l l l l l l j l j l l l l l l l l l l l i f =._.a.b.b.b.b.a.a.8.;.>.,.f.|.!.s %.= &         ",
"        & = %.s !.|.c.i.a e i l l l l l l l l l l l l l l l l l l l l l l j i f =._.a.b.b.b.b.a.a.8.;.>.,.f.|.!.s %.= & j.      ",
"        & = %.s !.|.c.i.a e i l l l l l l l l l l l l l l l l l l l l j i i (.f 0._.a.b.b.b.b.a.a.8.;.>.,.f.|.!.s %.= & k.  *   ",
"        & = %.s !.|.c.i.a e i l l l l l l l l l l l l l l l l l l l j i (.T f =.0._.a.b.b.b.b.a.a.8.;.>.,.f.|.!.s %.= & k.  *   ",
"        & = %.s !.|.c.i.a e i l l l l l l l l l l l l l l l l l l l i (.f f 0.0._._.b.b.b.b.b.a.a.8.;.>.,.f.|.!.s %.= & j.      ",
"        & = %.s !.|.c.i.a e i l l l l l l l l l l l l l l l l l l j i T f 0._._.a.a.b.b.b.b.b.a.a.8.;.>.,.f.|.!.s %.= & *       ",
"        & = %.s !.|.c.i.a e i l l l l l l l l l l l l l l l l j i i (.f 0._.a.b.b.b.b.b.b.b.b.a.a.8.;.>.,.f.|.!.s %.= &         ",
"        & = %.s !.|.c.i.a e j l l l l l l l l l l l l l l l j i (.T f =._._.b.b.b.b.b.b.b.b.b.a._.8.;.>.,.f.<.!.s %.= &         ",
"        & = %.s !.|.c.i.a e j l l l l l l l l l l l l l l l i (.f f 0._._.a.b.b.b.b.b.b.b.b.b.a.a.8.;.>.,.f.<.!.s %.= &         ",
"        & = %.s !.).h.i.a e n l l l l l l l l l l l l l l j i T f 0._._.a.a.b.b.b.b.b.b.b.b.b.b.b.8.;.>.,.c.).!.s %.= &         ",
"      * & = %.s N L l.: 0 U e n n j l l l l l l l l l j i i (.f 0._._.a.b.b.b.b.b.b.b.b.b.b.8.8.6.;.V @.< #.L N $.%.= &         ",
"      *   = - t E D C B 1 0 h d f n l l l l l l l l l i i (.f =.0._.a.a.a.a.a.a.a.a.a.a.a.b.8.;.V 1.@.: X C N E t - =           ",
"          j.k.u t s { r B K m.a d n l l l l l l l l j i (.f =.0._._.a.a.a.a.a.a.a.a.a._.a.b.6.V >.n.W X D Q s t u               ",
"          *   o.- 5 2.Q C L W m.h e n j j i i i i i n f =._._.a.8.8.8.8.8.8.8.8.8.8.8.8.8.8.;.1.n.d.O P Q t 5 -                 ",
"          p.* o.= ( 5 s N M L K 0 U e e e e e e e e ` +.-.b ;.;.;.;.;.;.;.;.;.;.;.;.;.;.;.;.V @.W O L N s 5 ( =                 ",
"          *   q.r.= - t E N C B 1 0 a a a a a a a a s.V c 7 >.>.>.>.>.>.>.>.>.>.>.>.>.>.>.>.@.: X P N E 2.- =                   ",
"          *   o.r.r.o.u t s Q r B : i.i.i.i.i.i.i.i.i.t.[ ,.,.,.,.,.,.,.,.,.,.,.,.,.,.,.,.,.< X D Q s 2.u.                      ",
"          *   k.v.v.k.  - 5 2.{ C l.h.c.c.c.c.c.c.c.c.c.}.}.f.f.f.f.f.f.f.f.f.f.f.f.f.f.f.c.#.C Q t 5 -                         ",
"              j.k.k.j.  = ( 5 s D L ).|.|.|.|.|.|.|.|.|.|.|.|.|.|.|.|.|.|.|.|.|.|.|.|.<.<.).L N s 5 ( =                         ",
"                          = - t E N !.!.!.!.!.!.!.!.!.!.!.!.!.!.!.!.!.!.!.!.!.!.!.!.!.!.!.!.N E t - =                           ",
"                * *           u t s s s s s s s s s s s s s s s s s s s s s s s s s s s s s $.t u                               ",
"                                - %.%.%.%.%.%.%.%.%.%.%.%.%.%.%.%.%.%.%.%.%.%.%.%.%.%.%.%.%.%.-                                 ",
"                                = = = = = = = = = = = = = = = = = = = = = = = = = = = = = = = =                                 ",
"                                  & & & & & & & & & & & & & & & & & & & & & & & & & & & & & &                                   ",
"                                            * *                                                                                 ",
"                                                                                                                                ",
"                                                                                                                                ",
"                                                                                                                                "};
