/* XPM */
static char *_b3d55c949e14d5acd6185f9a1afeaf1r5xN6f6GvRW8sfZc[] = {
/* columns rows colors chars-per-pixel */
"64 64 21 1 ",
"  c #ACC766",
". c #AFC968",
"X c #B3CA6B",
"o c #B5CD6B",
"O c #B4CB6C",
"+ c #B7CE6C",
"@ c #B9CF6D",
"# c #BBD06E",
"$ c #BED36F",
"% c #BFD46F",
"& c #C0D46F",
"* c #C0D470",
"= c #C3D675",
"- c #C9DA7E",
"; c #CCDB83",
": c #CCDC83",
"> c #D1DF8B",
", c #D7E393",
"< c #DAE597",
"1 c #DEE79D",
"2 c #DEE89D",
/* pixels */
"***#OX+@##$$##$******$##@+XO#***********************************",
"****************************************************************",
"****************************************************************",
"****************************************************************",
"*************************************************&**************",
"***********************$##$**********************$##$$##$*******",
"***********************#XX#**********************#XX##XX#*******",
"*********************$#o.X#**********************#XXooXX#*******",
"*********************#X.o#$*********************&$#o..o#$*******",
"*********************@  @**************************#XX#*********",
"*********************@  @**************************$##$*********",
"*******$##$**********#XX#***************************************",
"*******#XX#**********$##$***************************************",
"*******#X.o#$***************************************************",
"*******$#o.X#***************************************************",
"*********@  @******$##$*****************************************",
"*********@  @******#XX#*****************************************",
"*********#XX#****$#o.X#*****************************************",
"*********$##$****#X.o#$*****************************************",
"*****************@  @****************$##$$##$*******************",
"*****************@  @****************#XX##XX#*******************",
"*****************#XX#****************#XXooXX#*******************",
"*****************$##$****************$#o..o#$*******************",
"***************************************#XX#*********************",
"***************************************$##$*********************",
"****************************************************************",
"****************************************************************",
"****************************************************************",
"****************************************************************",
"****************************************************************",
"****************************************************************",
"****************************************************************",
"****************************************************************",
"****************************************************************",
"****************************************************************",
"******************************************************&&**&&****",
"****************************************************************",
"*****************************************************=--==--=***",
"***************************************************&*-,,--,,-*&*",
"**************&&***********************************&*-,<>><,-*&*",
"*****************************************************=-><<>-=***",
"************&=--=************************************&*-,,-*&***",
"***********&*-,,-*&***********************************&=--=&****",
"******&&***=-><,-*&*********************************************",
"*********&*-,<>-=***************************************&&******",
"*****=--=$*;22;*&***********************************************",
"***&*-,,-&&:22;&%***********************************************",
"***&*-,<>-=:22:*&***&&******************************************",
"*****=-><,-;12;*&***********************************************",
"*****&*;21;-,,-*&**=--=&****************&&**&&******************",
"*****%&;22:=--=**&*-,,-*&***************************************",
"*****&*:22:*&****&*-,<>-=**************=--==--=*****************",
"*****&*;22;*$&*****=-><,-*&**********&*-,,--,,-*&***************",
"*****&*-,,-*&******&*;22;*&**********&*-,<>><,-*&***************",
"*******=--=********%&;22:*&************=-><<>-=*****************",
"*******************&*:22:*&************&*-,,-*&*****************",
"********&&*********&*;22;*&*************&=--=&******************",
"*******************&*-,,-*&*************************************",
"*********************=--=*****************&&********************",
"****************************************************************",
"**********************&&****************************************",
"****************************************************************",
"****************************************************************",
"****************************************************************"
};
