/* XPM */
static char * House_xpm[] = {
"64 64 161 2",
"  	c #C0D470",
". 	c #BBD06E",
"+ 	c #B4CB6C",
"@ 	c #B3CA6B",
"# 	c #B7CE6C",
"$ 	c #B9CF6D",
"% 	c #BED36F",
"& 	c #91645D",
"* 	c #8C5E5C",
"= 	c #9C7364",
"- 	c #BF9A79",
"; 	c #C3A17A",
"> 	c #C49E7B",
", 	c #AF886F",
"' 	c #B18B70",
") 	c #B99474",
"! 	c #D8B486",
"~ 	c #DFBC8D",
"{ 	c #DDBA8A",
"] 	c #A07666",
"^ 	c #AB846B",
"/ 	c #D2AE84",
"( 	c #DAB788",
"_ 	c #D2B384",
": 	c #96685D",
"< 	c #A37A66",
"[ 	c #CBA780",
"} 	c #A5AB6D",
"| 	c #8EA662",
"1 	c #90A663",
"2 	c #C0D46F",
"3 	c #C9A57E",
"4 	c #D7B887",
"5 	c #B4AE75",
"6 	c #A7BF68",
"7 	c #9CBC61",
"8 	c #92B55E",
"9 	c #C5B27E",
"0 	c #BEB07A",
"a 	c #92AE61",
"b 	c #84AA5B",
"c 	c #77A257",
"d 	c #BACD6D",
"e 	c #B4CC6B",
"f 	c #A5C264",
"g 	c #8BAE5D",
"h 	c #96B85F",
"i 	c #ADC867",
"j 	c #A2BD62",
"k 	c #9FA96A",
"l 	c #7EA559",
"m 	c #97B562",
"n 	c #8FB25E",
"o 	c #ABC468",
"p 	c #C2D671",
"q 	c #BED26F",
"r 	c #AAC565",
"s 	c #C8B17D",
"t 	c #9A6E60",
"u 	c #B98F6A",
"v 	c #999A61",
"w 	c #AFC968",
"x 	c #996B5C",
"y 	c #7E7E5D",
"z 	c #829F5E",
"A 	c #98B662",
"B 	c #6E7B5C",
"C 	c #65815C",
"D 	c #B3C369",
"E 	c #AFBF66",
"F 	c #A9935F",
"G 	c #AC8C5E",
"H 	c #ABA45F",
"I 	c #A19259",
"J 	c #9B8B57",
"K 	c #A49062",
"L 	c #CBAB87",
"M 	c #D3B38E",
"N 	c #8D9958",
"O 	c #A8AA61",
"P 	c #B7B866",
"Q 	c #B9B46A",
"R 	c #E9D3AC",
"S 	c #EDDAB5",
"T 	c #EDD9B3",
"U 	c #9DB35F",
"V 	c #99A65F",
"W 	c #B2936A",
"X 	c #E3CAA3",
"Y 	c #E9D2AB",
"Z 	c #EEDCB7",
"` 	c #EFDEBA",
" .	c #82A45C",
"..	c #B39D63",
"+.	c #D8BD96",
"@.	c #E1C69F",
"#.	c #F1E1BD",
"$.	c #E0C195",
"%.	c #EEDCB8",
"&.	c #9F995A",
"*.	c #B7A469",
"=.	c #CEB088",
"-.	c #D8BB97",
";.	c #F1DFBA",
">.	c #E7CFA7",
",.	c #E5CBA2",
"'.	c #E5CCA3",
").	c #E4C99F",
"!.	c #8A7A58",
"~.	c #90905A",
"{.	c #AAA763",
"].	c #E8D1AC",
"^.	c #EBD7B1",
"/.	c #DEBE93",
"(.	c #B48C6A",
"_.	c #BF9B77",
":.	c #8F615D",
"<.	c #F1E1BC",
"[.	c #916760",
"}.	c #A7775A",
"|.	c #AA7E61",
"1.	c #AB8266",
"2.	c #B48965",
"3.	c #BA8E65",
"4.	c #84595E",
"5.	c #C49A6C",
"6.	c #855E62",
"7.	c #C09669",
"8.	c #815760",
"9.	c #A77A5D",
"0.	c #B0815D",
"a.	c #AF805D",
"b.	c #AC7D5D",
"c.	c #81565E",
"d.	c #BC926A",
"e.	c #956C63",
"f.	c #B38661",
"g.	c #C3D675",
"h.	c #C9DA7E",
"i.	c #7E535F",
"j.	c #D7E393",
"k.	c #7B5261",
"l.	c #DAE597",
"m.	c #D1DF8B",
"n.	c #BC9166",
"o.	c #C79F73",
"p.	c #CFA97A",
"q.	c #D2AC7F",
"r.	c #C8A072",
"s.	c #CCDB83",
"t.	c #886162",
"u.	c #876062",
"v.	c #DEE89D",
"w.	c #DEE79D",
"x.	c #6E4664",
"y.	c #734A61",
"z.	c #895D60",
"A.	c #BFD46F",
"B.	c #CCDC83",
"C.	c #7E5867",
"D.	c #72495F",
"      . + @ # $ . . % % . . %             % . . $ # @ + & & & & & & & &                                                         ",
"                                                * * * = - ; > > > > ; - = * * *                                                 ",
"                                                , ' ' ) ! ~ { { { { ~ ! ) ' ' ,                                                 ",
"                                        = ] = ^ / ( ( ( _ _ _ _ _ _ _ _ ( ( ( / ^ = ] =                                         ",
"                                : : & < [ / / _ ( ( ( _ } | 1 1 1 1 | } _ ( ( ( _ / / [ < & : :   2                             ",
"                        * * * = - > > 3 ( ~ ~ 4 5 } } } 6 7 8 8 8 8 7 6 } } } 5 4 ~ ~ ( 3 > > - = * * * % % . . %               ",
"                        , ' ' ) ! ~ ~ ( 9 0 0 5 a b c b d e f f f f e d b c b a 5 0 0 9 ( ~ ~ ! ) ' ' , . . @ @ .               ",
"                = ] = ^ / ( ( ( _ _ _ 9 | b g g 7 h b b e i j j j j i e b b h 7 g g b | 9 _ _ _ ( ( ( / ^ = ] = .               ",
"              = 3 / / _ ( ( ( _ k | 1 | l j d e f h b b f 7 8 8 8 8 7 f b b h f e d j l | 1 | k _ ( ( ( _ / / 3 =               ",
"              ] _ ~ ~ 4 5 } } } m 8 n b l o p q r h b b i f 7 7 7 7 f i b b h r q p o l b n 8 m } } } 5 4 ~ ~ _ ]               ",
"              = 3 s 0 5 g c b 7 i r 7 g l j d e f h b g d e f f f f e d g b h f e d j l g 7 r i 7 b c g 5 0 s 3 =               ",
"              t u v l b g l m q q w 7 g l 7 r r f h b b e i j j j j i e b b h f r r 7 l g 7 w q q m l g b l v u t               ",
"              . x y z 7 n l A q q w 7 g l f q d f h b b f 7 8 8 8 8 7 f b b h f d q f l g 7 w q q A l n 7 z y x                 ",
"              . @ B z j 8 l n i w r 7 g l o p q r h b b i f 7 7 7 7 f i b b h r q p o l g 7 r w i n l 8 j z B                   ",
"              % . C z 7 8 l n i w r 7 g l j d e f h b g d e f f f f e d g b h f e d j l g 7 r w i n l 8 7 z C                   ",
"                  C z 7 8 l A q q w 7 g l 7 r r f h b b D E j j j j E D b b h f r r 7 l g 7 w q q A l 8 7 z C                   ",
"                  C z 7 8 l A q q w 7 g l f q d f h b z F G G G G G G F z b h f d q f l g 7 w q q A l 8 7 z C                   ",
"                  C z 7 8 l n i w r 7 g l o p d H I J K L M M M M M M L K J I H d p o l g 7 r w i n l 8 7 z C                   ",
"                  C z 7 8 l n w w r 7 g N O P Q ; > > L R S T T T T S R L > > ; Q P O N g 7 r w w n l 8 7 z C                   ",
"                  C z 7 8 l A q d E U V W u u > X Y Y R Z ` ` ` ` ` ` Z R Y Y X > u u W V U E d q A l 8 7 z C                   ",
"                  C z 7 8  .A d ..G G W +.@.@.X ` #.#.Z @.$.$.$.$.$.$.@.Z #.#.%.X @.@.+.W G G ..d A  .8 7 z C                   ",
"                  C  .j &.J I *.=.M M -.S ;.;.Z >.,.'.).~ { { { { { { ~ ).'.,.>.Z ;.;.S -.M M =.*.I J &.j  .C                   ",
"                  !.~.{.; > > L ].S T T ^.^.^.Y /.{ { ! 3 > > > > > > 3 ! { { /.Y ^.^.^.T T S ].L > > ; {.~.!.                  ",
"                (.u (._.X Y Y R Z ` ` T $.{ ~ ( _ / _ 3 ] & & & & & & ] 3 _ / _ ( ~ { $.T ` ` Z R Y Y X _.(.u (.                ",
"              u +.@.@.X ` #.#.Z @.$.$./.( ( ( / ^ = ] = & :.& & & & :.& = ] = ^ / ( ( ( /.$.$.@.Z #.#.` X @.@.+.u               ",
"              ) ].<.;.Z >.,.'.).~ { { _ ) ' ' , [.* * :.& & & & & & & & :.* * [., ' ' ) _ { { ~ ).'.,.>.Z ;.<.].)               ",
"              (.X ^.^.Y /.{ { ! 3 > ; - t * * :.:.& :.:.:.:.:.:.:.:.:.:.:.:.& :.:.* * t - ; > 3 ! { { /.Y ^.^.X (.              ",
"              ] _ ~ ~ ( _ / / 3 < : x : : : : : : : : : : : : : : : : : : : : : : : : : : x : < 3 / / _ ( ~ ~ _ ]               ",
"              ] / ( ( / , ] < ] }.}.}.}.}.}.}.}.}.}.}.}.}.}.}.}.}.}.}.}.}.}.}.}.}.}.}.}.}.}.}.}.] < ] , / ( ( / ]               ",
"                , ' ' (.|.1.2.2.3.3.3.3.3.3.3.3.3.3.3.3.3.3.3.3.3.3.3.3.3.3.3.3.3.3.3.3.3.3.3.3.2.2.1.|.(.' ' ,                 ",
"                * * 4.& 2.5.5.5.5.5.5.5.5.5.5.5.5.5.5.5.5.5.5.5.5.5.5.5.5.5.5.5.5.5.5.5.5.5.5.5.5.5.5.2.:.4.* *                 ",
"                      6.(.7.7.7.7.7.7.7.7.7.7.7.7.7.7.7.7.7.7.7.7.7.7.7.7.7.7.7.7.7.7.7.7.7.7.7.7.7.7.(.4.                      ",
"                      8.9.0.a.a.a.a.a.a.a.a.a.a.a.a.a.a.a.a.b.a.a.a.a.a.a.a.a.a.a.a.a.a.a.a.a.a.a.a.0.9.c.                      ",
"                      6.2.3.3.3.3.3.3.3.3.3.3.3.3.3.3.3.3.3.3.3.3.3.3.3.3.3.3.3.3.3.3.3.3.3.3.3.3.3.3.2.6.                      ",
"                      6.d.5.5.5.5.5.5.5.5.5.5.5.5.5.5.5.5.5.5.5.5.5.5.5.5.5.5.5.5.5.5.5.5.5.5.5.5.5.5.d.6.                      ",
"                      6.d.5.5.5.d.d.d.d.5.5.5.5.5.5.5.5.5.5.5.5.5.5.5.5.5.5.5.5.5.5.5.5.d.d.d.d.5.5.5.d.6.  2 2     2 2         ",
"                      6.d.5.5.d.e.6.6.e.d.5.5.5.5.5.5.5.5.5.5.5.5.5.5.5.5.5.5.5.5.5.5.d.e.6.6.e.d.5.5.d.6.                      ",
"                      8.|.f.|.e.* 4.4.* e.|.f.f.f.f.f.f.= = = = = = = = f.f.f.f.f.f.|.e.* 4.4.* e.|.f.|.8.g.h.h.g.g.h.h.g.      ",
"                      8.|.f.= i.* & & * i.= f.f.f.f.b.: c.i.i.i.i.i.i.c.: b.f.f.f.f.= i.* & & * i.= f.|.8.h.j.j.h.h.j.j.h.  2   ",
"                      6.d.5.1.k.* & & * k.1.5.5.5.d.< c.* & :.:.:.:.& * c.< d.5.5.5.1.k.* & & * k.1.5.d.6.h.j.l.m.m.l.j.h.  2   ",
"                      6.d.5.1.k.:.& & :.k.1.5.5.5.< 6.* :.& & & & & & :.* 6.< 5.5.5.1.k.:.& & :.k.1.5.d.6.g.h.m.l.l.m.h.g.      ",
"                      6.d.5.1.6.1.2.2.1.6.1.5.5.5.= i.:.& & & & & & & & & i.= 5.5.5.1.6.1.2.2.1.6.1.5.d.6.2   h.j.j.h.  2       ",
"                      6.2.n.|.= o.p.p.o.= |.3.3.3.[.i.:.& & & & & & & :.:.i.[.3.3.3.|.= o.p.p.o.= |.n.2.6.  2 g.h.h.g.2         ",
"            2 2       8.9.0.b.2.q.! ! q.2.b.a.0.b.:.i.:.& & & & & & & & :.i.:.b.0.a.b.2.q.! ! q.2.b.0.9.8.                      ",
"                  2   6.u 7.7.7.o.r.r.o.7.7.7.7.d.e.i.:.& & & & & & :.& :.i.e.d.7.7.7.7.o.r.r.o.7.7.7.u 6.      2 2             ",
"          g.h.h.g.%   6.d.5.5.5.5.5.5.5.5.5.5.5.5.= i.:.& & & & & & :.:.:.i.= 5.5.5.5.5.5.5.5.5.5.5.5.d.6.                      ",
"      2   h.j.j.h.2 2 6.d.5.5.5.5.5.5.5.5.5.5.5.5.= i.& x x x x x x x : & i.= 5.5.5.5.5.5.5.5.5.5.5.5.d.6.                      ",
"      2   h.j.l.m.h.g.6.(.d.d.d.d.d.d.d.d.d.d.d.u e.c.x 9.b.b.b.b.b.b.9.x c.e.u d.d.d.d.d.d.d.d.d.d.d.(.6.                      ",
"          g.h.m.l.j.h.s.6.6.6.6.t.t.u.6.6.6.6.6.6.k.* 9.n.7.7.7.7.7.7.n.9.* k.6.6.6.6.6.6.u.t.t.6.6.6.6.                        ",
"          2   s.v.w.s.h.j.j.x.k.t ] [.y.x.h.g.2     z.}.d.7.n.n.n.n.7.d.}.z.    2 2   x.y.[.] t k.x.                            ",
"          A.2 s.v.v.B.g.h.h.g.6.2.n.< k.j.j.h.  2     t d.7.n.n.n.n.7.d.t               k.< n.2.6.                              ",
"          2   B.v.v.B.  2     6.d.5.1.k.j.l.m.h.g.    t d.5.7.7.7.7.5.d.t     g.h.h.g.g.k.1.5.d.6.                              ",
"          2   s.v.v.s.  % 2   6.d.5.1.k.h.m.l.j.h.  2 t d.n.3.3.3.3.n.d.t 2   h.j.j.h.h.k.1.5.d.6.                              ",
"          2   h.j.j.h.  2     6.d.5.1.k.  s.v.v.s.  2 t d.7.d.d.d.d.7.d.t 2   h.j.l.m.m.k.1.5.d.6.                              ",
"              g.h.h.g.        6.d.5.1.k.2 s.v.v.B.  2 t d.7.d.d.d.d.7.d.t     g.h.m.l.l.k.1.5.d.6.                              ",
"                              6.d.5.1.k.  B.v.v.B.  2 t d.n.3.3.3.3.n.d.t     2   h.j.j.k.1.5.d.6.                              ",
"                2 2           6.u 5.1.k.  s.v.v.s.  2 t d.5.7.7.7.7.5.d.t       2 g.h.h.k.1.5.u 6.                              ",
"                              C.e.= e.2   h.j.j.h.  2 t d.7.n.n.n.n.7.d.t                 e.= e.C.                              ",
"                                y.D.      g.h.h.g.    t d.7.n.n.n.n.7.d.t           2 2     D.y.                                ",
"                                                      t d.5.7.7.7.7.5.d.t                                                       ",
"                                            2 2       t d.n.3.3.3.3.n.d.t                                                       ",
"                                                      t d.5.d.d.d.d.5.d.t                                                       ",
"                                                      [.1.2.2.2.2.2.2.1.[.                                                      ",
"                                                        & & & & & & & &                                                         "};
