/* XPM */
static char *bf01596b3987467ac050e9ff84aef551K0eB61tbRNKCwxRF[] = {
/* columns rows colors chars-per-pixel */
"64 64 11 1 ",
"  c #ABDDBF",
". c #ADDEBF",
"X c #B0DFBE",
"o c #B1E0BE",
"O c #9BD4C3",
"+ c #9CD4C3",
"@ c #A1D7C2",
"# c #A3D8C1",
"$ c #A4D9C1",
"% c #A9DBC0",
"& c #AADCC0",
/* pixels */
"OOOOOOOOOOOOOOOOOOOOOOOOOOOOOOOOOOOOOOOOOOOOOOOOO++$&.oooooooooo",
"OOOOOOOOOOOOOOOOOOOOOOOOOOOOOOOOOOOOOOOOOOOOOOOOO++#%.Xooooooooo",
"OOOOOOOOOOOOOOOOOOOOOOOOOOOOOOOOOOO+OOOOOOOOOOOOO++#$ ..........",
"OOOOOOOOOOOOOOOOOOOOOOOOOOOOOOOOOOOOOOOOOOOOOOOOOO+@$$%&&&&&&&&&",
"OOOOOOOOOOOOOOOOOOOOOOOOOOOOOOOOO++OO+OOOOOOOOOOOO++@##$$$$$$$$$",
"OOOOOOOOOOOOOOOOOOOOOOOOOOOOO++++++++++OOOOOOOOOOO++++++++++++++",
"OOOOOOOOOOOOOOOOOOOOOOOOOO++++++++++++++++OOOOOOOOOOO+++++++++++",
"OOOOOOOOOOOOOOOOOOOOOOOOOO++@#$$$$$$$$#@++OOOOOOOOOOO+OOOOOOOOOO",
"OOOOOOOOOOOOOOOOOOOOOOOOOO+@$$&&&&&&&&$$@+OOOOOOOOOOOOOOOOOOOOOO",
"OOOOOOOOOOOOOOOOOOOOOOOOO++#$&........&$#++OOOOOOOOOOOOOOOOOOOOO",
"OOOOOOOOOOOOOOOOOOOOOOOOO++#$&........&$#++OOOOOOOOOOOOOOOOOOOOO",
"OOOOOOOOOOOOOOOOOOOOOOOOOO+@$$&&&&&&&&$$@+OOOOOOOOOOOOOOOOOOOOOO",
"OOOOOOOOOOOOOOOOOOOOOOOOOO++@#$$$$$$$$#@++OOOOOOOOOOOOOOOOOOOOOO",
"OOOOOOOOOOOOOOOOOOOOOOOOOO++++++++++++++++OOOOOOOOOOOOOOOOOOOOOO",
"OOOOOOOOOOOOOOOOOOOOOOOOOOOOO++++++++++OOOOOOOOOOOOOOOOOOOOOOOOO",
"OOOOOOOOOOOOOOOOOOOOOOOOOOOOO+OOOOOOOOOOOOOOOOOOOOOOOOOOOOOOOOOO",
"OOOOOOOOOOOOOOOOOOOOOOOOOOOOOOOOOOOOOOOOOOOOOOOOOOOOOOOOOOOOOOOO",
"+++++++++++OOOOOOOOOOOOOOOOOOOOOOOOOOOOOOOOOOOOOOOOOOOOOOOOOO+++",
"@+++++++++++++OOOOOOOOOOOOOOOOOOOOOOOOOOOOOOOOOOOOOOOOOOOO++++++",
"$$$$$$$$$$#@++OOOOOOOOOOOOOOOOOOOOOOOOOOOOOOOOOOOOOOOOOOOO++@#$$",
"&&&&&&&&&&$$@+OOOOOOOOOOOOOOOOOOOOOOOOOOOOOOOOOOOOOOOOOOOO+@$$&&",
"..........&$#++OOOOOOOOOOOOOOOOOOOOOOOOOOOOOOOOOOOOOOOOOO++#$&..",
"..........&$#++OOOOOOOOOOOOOOOOOOOOOOOOOOOOOOOOOOOOOOOOOO++#$&..",
"&&&&&&&&&&$$@+OOOOOOOOOOOOOOOOOOOOOOOOOOOOOOOOOOOOOOOOOOOO+@$$&&",
"$$$$$$$$$$#@++OOOOOOOOOOOOOOOOOOOOOOOOOOOOOOOOOOOOOOOOOOOO++@#$$",
"++++++++++++++OOOOOOOOOOOOOOOOOOOOOOOOOOOOOOOOOOOOOOOOOOOO++++++",
"+++++++++++OOOOOOOOOOOOOOOOOOOOOOOOOOOOOOOOOOOOOOOOOOOOOOOOOO+++",
"OOOOO++OOOOOOOOOOOOOOOOOOOOOOOOOOOOOOOOOOOOOOO+OOOOOOOOOOOOOOOOO",
"OOOOOOOOOOOOOOOOOOOOOOOOOOOOOOOOOOOOOOOOOOOOO++OOOOOOOOOOOOOOOOO",
"OOOO+OOOOOOOOOOOOOOOOOOOOOOOOOOOOOOOO++++++++++++++OOOOOOOOOOOOO",
"OOOOOOOOOOOOOOOOOOOOOOOOOOOOOOOOOO++++++++++++++++++++OOOOOOOOOO",
"OOOOOOOOOOOOOOOOOOOOOOOOOOOOOOOOOO++@#$$$$$$$$$$$$#@++OOOOOOOOOO",
"OOOOOOOOOOOOOOOOOOOOOOOOOOOOOOOOOO+@$$&&&&&&&&&&&&$$@+OOOOOOOOOO",
"OOOOOOOOOOOOOOOOOOOOOOOOOOOOOOOOO++#$&............&$#++OOOOOOOOO",
"OOOOOOOOOOOOOOOOOOO+OOOOOOOOOOOOO++#$&............&$#++OOOOOOOOO",
"OOOOOOOOOOOOOOOOOOOOOOOOOOOOOOOOOO+@$$&&&&&&&&&&&&$$@+OOOOOOOOOO",
"OOOOOOOOOOOOOOOOO++O++OOOOOOOOOOOO++@#$$$$$$$$$$$$#@++OOOOOOOOOO",
"OOOOOOOOOOOOOOOOO++++++OOOOOOOOOOO++++++++++++++++++++OOOOOOOOOO",
"OOOOOOOOOOOOOO++++++++++++OOOOOOOOOOO++++++++++++++OOOOOOOOOOOOO",
"OOOOOOOOOOOOOO++@#$$$$#@++OOOOOOOOOOOOOOOO+OOOOOOOOOOOOOOOOOOOOO",
"OOOOOOOOOOOOOO+@$$&&&&$$@+OOOOOOOOOOOOOOOOOOOOOOOOOOOOOOOOOOOOOO",
"OOOOOOOOOOOOO++#$&....&$#++OOOOOOOOOOOOOOOOOOOOOOOOOOOOOOOOOOOOO",
"OOOOOOOOOOOOO++#$&....&$#++OOOOOOOOOOOOO+OOOOOOOOOOOOOOOOOOOOOOO",
"OOOOOOOOOOOOOO+@$$&&&&$$@+OOOOOOOOOOOOOOOOOOOOOOOOOOOOOOOOOOOOOO",
"OOOOOOOOOOOOOO++@#$$$$#@++OOOOOOOOOOOOOOOOOOOOOOOOOOOOOOOOOOO+OO",
"OOOOOOOOOOOOOO++++++++++++OOOOOOOOOOOOOOOOOOOOOOOOOOO++++++++++O",
"OOOOOOOOOOOOOOOOO++++++OOOOOOOOOOOOOOOOOOOOOOOOOOO++++++++++++++",
"OOOOOOOOOOOOOOOOOOOOOOOOOOOOOOOOOOOOOOOOOOOOOOOOOO++@#$$$$$$$$#@",
"OOOOOOOOOOOOOOOOOOOOOOOOOOOOOOOOOOOOOOOOOOOOOOOOOO+@$$&&&&&&&&$$",
"OOOOOOOOOOOOOOOOOOOOOOOOOOOOO++++++++++OOOOOOOOOO++#$&........&$",
"OOOOOOOOOOOOOOOOOOOOOOOOOO++++++++++++++++OOOOOOO++#$&........&$",
"OOOOOOOOOOOOOOOOOOOOOOOOOO++@#$$$$$$$$#@++OOOOOOOO+@$$&&&&&&&&$$",
"OOOOOOOOOOOOOOOOOOOOOOOOO++@$$&&&&&&&&$$@+OOOOOOOO++@#$$$$$$$$#@",
"OOOOOOOOOOOOOOOOOOOOOOOO+++#$&........&$#++OOOOOOO++++++++++++++",
"OOOOOOOOOOOOOOOOOOOOOOOOO++#$&........&$#++OOOOOOOOOO++++++++++O",
"OOOOOOOOOOOOOOOOOOOOOOOOOO+@$$&&&&&&&&$$@+OOOOOOOOOOO+OOOOOOOOOO",
"OOOOOOOOOOOOOOOOOOOOOOOOOO++@#$$$$$$$$#@++OOOOOOOOOOOOOOOOOOOOOO",
"OOOOOOOOOOOOOOOOOOOOOOOOOO++++++++++++++++OOOOOOOOOOOOOOOOOOOOOO",
"OOOOOOOOOOOOOOOOOOOOOOOOOOOOO++++++++++OOOOOOOOOOOOOOOOOOOOOOOOO",
"OOOOOOOOOOOOOOOOOOOOOOOOOOOOOOOOOOOOOOOOOOOOOOOOOOOOOOOOOOOOOOOO",
"OOOOOOOOOOOOOOOOOOOOOOOOOOOOOOOOO+OOOOOOOOOOOOOOOOOOOOOOOOOOOOOO",
"OOOOOOOOOOOOOOOOOOOOOOOOOOOOOOOOOOOOOOOOOOOOOOOOOOOOOOOOOOOOOOOO",
"OOOOOOOOOOOOOOOOOOOOOOOOOOOOOOOOOOOOOOOOOOOOOOOOOOOOOOOOOOOOOOOO",
"OOOOOOOOOOOOOOOOOOOOOOOOOOOOOOOOOOOOOOOOOOOOOOOOOOOOOOOOOOOOOOOO"
};
